<svg xmlns="http://www.w3.org/2000/svg" width="15.291" height="15.293" viewBox="0 0 15.291 15.293">
  <g id="Group_15160" data-name="Group 15160" transform="translate(0.353 3.285)">
    <g id="Group_12642" data-name="Group 12642" transform="translate(0 0)">
      <path id="Icon_ionic-ios-male" data-name="Icon ionic-ios-male" d="M10.758,2.438H8.506a.281.281,0,0,0,0,.562h1.559L8.2,4.878a3.518,3.518,0,1,0,.4.4l1.878-1.867V4.968a.281.281,0,1,0,.562,0V2.719A.278.278,0,0,0,10.758,2.438ZM8.868,7.543a2.937,2.937,0,1,1-.86-2.074A2.914,2.914,0,0,1,8.868,7.543Z" transform="translate(3.65 -5.473)" fill="#9ea5b0" stroke="#4d5767" stroke-width="0.5"/>
      <path id="Icon_ionic-ios-female" data-name="Icon ionic-ios-female" d="M.281,8.611a.275.275,0,0,0,.2-.083L1.407,7.6l.766.766a.279.279,0,0,0,.2.083.275.275,0,0,0,.2-.083.281.281,0,0,0,0-.4L1.8,7.2,2.84,6.168a3.5,3.5,0,1,0-.4-.4L1.407,6.805.641,6.039a.279.279,0,0,0-.2-.083.275.275,0,0,0-.2.083.281.281,0,0,0,0,.4L1.01,7.2.082,8.13a.282.282,0,0,0,.2.48ZM3.033,1.422A2.937,2.937,0,1,1,7.188,5.575,2.937,2.937,0,0,1,3.033,1.422Z" transform="matrix(0.695, -0.719, 0.719, 0.695, 0, 5.673)" fill="#9ea5b0" stroke="#4d5767" stroke-width="0.5"/>
    </g>
  </g>
</svg>
